# xmcd
#
# Track frame offsets:
#	150
#	18665
#	41655
#	57878
#	82099
#	96430
#	121607
#	132113
#	150231
#	172824
#	193905
#	205144
#
# Disc length: 2973 seconds
# Revision: 0
# Processed by: cddbd v1.5.2PL0 Copyright (c) Steve Scherf et al.
# Submitted via: dBpowerAMP V12.0
#
DISCID=980b9b0c
DTITLE=Various Artist -  Hills to Hollers LIVE!
DYEAR=2015
DGENRE=Country
TTITLE0=Barbara Higbie - Midnight Special
TTITLE1=Linda Tillery - Black Girl In The Pines
TTITLE2=Barbara Higbie - Working Girl Blues
TTITLE3=Laurie Lewis - Here Today
TTITLE4=Linda Tillery with Laurie Lewis and Barbara Higbie - Rosie
TTITLE5=Laurie Lewis - Pharoah's Daughter
TTITLE6=Laurie Lewis  Barbara Higbie - Tip the Canoe
TTITLE7=Linda Tillery - Toots Blues
TTITLE8=Laurie Lewis, Linda Tillery and Barbara Higbie - Cold Frost Morning - Piano Solo
TTITLE9=Linda Tillery - I'm So Lonesome I Could Cry
TTITLE10=Laurie Lewis, Linda Tillery and Barbara Higbie - Hollerin'
TTITLE11=Laurie Lewis, Linda Tillery and Barbara Higbie - San Francisco Bay Blues
EXTD=
EXTT0=
EXTT1=
EXTT2=
EXTT3=
EXTT4=
EXTT5=
EXTT6=
EXTT7=
EXTT8=
EXTT9=
EXTT10=
EXTT11=
PLAYORDER=
